<mxfile host="app.diagrams.net" agent="Mozilla/5.0 (Windows NT 10.0; Win64; x64) AppleWebKit/537.36 (KHTML, like Gecko) Chrome/136.0.0.0 Safari/537.36" version="26.0.3">
  <diagram name="Page-1" id="3z1aqTCYrfHoV47tBmr-">
    <mxGraphModel dx="2736" dy="2118" grid="1" gridSize="10" guides="1" tooltips="1" connect="1" arrows="1" fold="1" page="1" pageScale="1" pageWidth="827" pageHeight="1169" math="0" shadow="0">
      <root>
        <mxCell id="0" />
        <mxCell id="1" parent="0" />
        <mxCell id="1w-LjAs_5tWkFh24ZAov-1" value="&lt;b&gt;&lt;font style=&quot;font-size: 19px;&quot;&gt;OD&lt;/font&gt;&lt;/b&gt;&lt;div&gt;&lt;b&gt;&lt;font style=&quot;font-size: 19px;&quot;&gt;(Object Detection Module)&lt;/font&gt;&lt;/b&gt;&lt;/div&gt;" style="rounded=1;whiteSpace=wrap;html=1;fillColor=#d5e8d4;strokeColor=#82b366;" vertex="1" parent="1">
          <mxGeometry x="-20" y="130" width="300" height="140" as="geometry" />
        </mxCell>
        <mxCell id="1w-LjAs_5tWkFh24ZAov-4" value="&lt;span style=&quot;font-size: 19px;&quot;&gt;&lt;b&gt;ABS&lt;/b&gt;&lt;/span&gt;&lt;div&gt;&lt;span style=&quot;font-size: 19px;&quot;&gt;&lt;b&gt;Anti-lock Braking System&lt;/b&gt;&lt;/span&gt;&lt;/div&gt;" style="rounded=1;whiteSpace=wrap;html=1;fillColor=#d5e8d4;strokeColor=#82b366;" vertex="1" parent="1">
          <mxGeometry x="1040" y="130" width="300" height="140" as="geometry" />
        </mxCell>
        <mxCell id="1w-LjAs_5tWkFh24ZAov-5" value="&lt;span style=&quot;font-size: 19px;&quot;&gt;&lt;b&gt;CAN Module&lt;/b&gt;&lt;/span&gt;" style="rounded=1;whiteSpace=wrap;html=1;fillColor=#d5e8d4;strokeColor=#82b366;" vertex="1" parent="1">
          <mxGeometry x="527" y="130" width="300" height="140" as="geometry" />
        </mxCell>
        <mxCell id="1w-LjAs_5tWkFh24ZAov-6" value="" style="endArrow=classic;html=1;rounded=0;entryX=0;entryY=0.25;entryDx=0;entryDy=0;" edge="1" parent="1" target="1w-LjAs_5tWkFh24ZAov-1">
          <mxGeometry width="50" height="50" relative="1" as="geometry">
            <mxPoint x="-330" y="165" as="sourcePoint" />
            <mxPoint x="220" y="220" as="targetPoint" />
          </mxGeometry>
        </mxCell>
        <mxCell id="1w-LjAs_5tWkFh24ZAov-7" value="&lt;div&gt;&lt;span style=&quot;font-size: 16px;&quot;&gt;input [22:0] distance&lt;/span&gt;&lt;/div&gt;" style="edgeLabel;html=1;align=center;verticalAlign=middle;resizable=0;points=[];" vertex="1" connectable="0" parent="1w-LjAs_5tWkFh24ZAov-6">
          <mxGeometry x="-0.3871" y="1" relative="1" as="geometry">
            <mxPoint x="85" y="-14" as="offset" />
          </mxGeometry>
        </mxCell>
        <mxCell id="1w-LjAs_5tWkFh24ZAov-10" value="" style="endArrow=classic;html=1;rounded=0;entryX=0;entryY=0.25;entryDx=0;entryDy=0;" edge="1" parent="1">
          <mxGeometry width="50" height="50" relative="1" as="geometry">
            <mxPoint x="-330" y="240" as="sourcePoint" />
            <mxPoint x="-20" y="240" as="targetPoint" />
          </mxGeometry>
        </mxCell>
        <mxCell id="1w-LjAs_5tWkFh24ZAov-11" value="&lt;div&gt;&lt;span style=&quot;font-size: 16px;&quot;&gt;input time_out&lt;/span&gt;&lt;/div&gt;" style="edgeLabel;html=1;align=center;verticalAlign=middle;resizable=0;points=[];" vertex="1" connectable="0" parent="1w-LjAs_5tWkFh24ZAov-10">
          <mxGeometry x="-0.3871" y="1" relative="1" as="geometry">
            <mxPoint x="85" y="-14" as="offset" />
          </mxGeometry>
        </mxCell>
        <mxCell id="1w-LjAs_5tWkFh24ZAov-12" value="" style="endArrow=classic;html=1;rounded=0;entryX=0.57;entryY=-0.019;entryDx=0;entryDy=0;entryPerimeter=0;strokeWidth=4;strokeColor=#0000CC;" edge="1" parent="1" target="1w-LjAs_5tWkFh24ZAov-4">
          <mxGeometry width="50" height="50" relative="1" as="geometry">
            <mxPoint x="-410" y="-160" as="sourcePoint" />
            <mxPoint x="1311.60009765625" y="-160" as="targetPoint" />
            <Array as="points">
              <mxPoint x="1210" y="-160" />
            </Array>
          </mxGeometry>
        </mxCell>
        <mxCell id="1w-LjAs_5tWkFh24ZAov-15" value="&lt;font style=&quot;font-size: 16px;&quot;&gt;&lt;b&gt;clk&lt;/b&gt;&lt;/font&gt;" style="edgeLabel;html=1;align=center;verticalAlign=middle;resizable=0;points=[];" vertex="1" connectable="0" parent="1w-LjAs_5tWkFh24ZAov-12">
          <mxGeometry x="-0.9476" y="4" relative="1" as="geometry">
            <mxPoint y="-16" as="offset" />
          </mxGeometry>
        </mxCell>
        <mxCell id="1w-LjAs_5tWkFh24ZAov-13" value="" style="endArrow=classic;html=1;rounded=0;strokeWidth=4;strokeColor=#0000CC;" edge="1" parent="1">
          <mxGeometry width="50" height="50" relative="1" as="geometry">
            <mxPoint x="120" y="-160" as="sourcePoint" />
            <mxPoint x="120" y="131" as="targetPoint" />
          </mxGeometry>
        </mxCell>
        <mxCell id="1w-LjAs_5tWkFh24ZAov-14" value="" style="endArrow=classic;html=1;rounded=0;entryX=0.5;entryY=0;entryDx=0;entryDy=0;strokeColor=#0000CC;strokeWidth=4;" edge="1" parent="1" target="1w-LjAs_5tWkFh24ZAov-5">
          <mxGeometry width="50" height="50" relative="1" as="geometry">
            <mxPoint x="680" y="-160" as="sourcePoint" />
            <mxPoint x="630" y="-20" as="targetPoint" />
          </mxGeometry>
        </mxCell>
        <mxCell id="1w-LjAs_5tWkFh24ZAov-16" value="" style="endArrow=classic;html=1;rounded=0;entryX=0.8;entryY=0;entryDx=0;entryDy=0;entryPerimeter=0;strokeColor=#FF0000;strokeWidth=2;" edge="1" parent="1" target="1w-LjAs_5tWkFh24ZAov-4">
          <mxGeometry width="50" height="50" relative="1" as="geometry">
            <mxPoint x="-400" y="-240" as="sourcePoint" />
            <mxPoint x="1450" y="-240" as="targetPoint" />
            <Array as="points">
              <mxPoint x="1280" y="-240" />
            </Array>
          </mxGeometry>
        </mxCell>
        <mxCell id="1w-LjAs_5tWkFh24ZAov-17" value="&lt;font style=&quot;font-size: 16px;&quot;&gt;&lt;b&gt;Rst&lt;/b&gt;&lt;/font&gt;" style="edgeLabel;html=1;align=center;verticalAlign=middle;resizable=0;points=[];" vertex="1" connectable="0" parent="1w-LjAs_5tWkFh24ZAov-16">
          <mxGeometry x="-0.9557" y="4" relative="1" as="geometry">
            <mxPoint x="5" y="-16" as="offset" />
          </mxGeometry>
        </mxCell>
        <mxCell id="1w-LjAs_5tWkFh24ZAov-18" value="" style="endArrow=classic;html=1;rounded=0;entryX=0.781;entryY=0.004;entryDx=0;entryDy=0;entryPerimeter=0;strokeWidth=2;strokeColor=#FF0000;" edge="1" parent="1" target="1w-LjAs_5tWkFh24ZAov-5">
          <mxGeometry width="50" height="50" relative="1" as="geometry">
            <mxPoint x="760" y="-240" as="sourcePoint" />
            <mxPoint x="730" y="-60" as="targetPoint" />
          </mxGeometry>
        </mxCell>
        <mxCell id="1w-LjAs_5tWkFh24ZAov-19" value="" style="endArrow=classic;html=1;rounded=0;strokeWidth=2;strokeColor=#FF0000;" edge="1" parent="1">
          <mxGeometry width="50" height="50" relative="1" as="geometry">
            <mxPoint x="200" y="-240" as="sourcePoint" />
            <mxPoint x="200" y="130" as="targetPoint" />
          </mxGeometry>
        </mxCell>
        <mxCell id="1w-LjAs_5tWkFh24ZAov-20" value="" style="endArrow=classic;html=1;rounded=0;exitX=1;exitY=0.5;exitDx=0;exitDy=0;entryX=0;entryY=0.5;entryDx=0;entryDy=0;" edge="1" parent="1">
          <mxGeometry width="50" height="50" relative="1" as="geometry">
            <mxPoint x="280" y="160" as="sourcePoint" />
            <mxPoint x="527" y="160" as="targetPoint" />
          </mxGeometry>
        </mxCell>
        <mxCell id="1w-LjAs_5tWkFh24ZAov-27" value="&lt;font style=&quot;font-size: 16px;&quot;&gt;input Identifier&lt;/font&gt;" style="edgeLabel;html=1;align=center;verticalAlign=middle;resizable=0;points=[];" vertex="1" connectable="0" parent="1w-LjAs_5tWkFh24ZAov-20">
          <mxGeometry x="-0.044" y="3" relative="1" as="geometry">
            <mxPoint x="11" y="-17" as="offset" />
          </mxGeometry>
        </mxCell>
        <mxCell id="1w-LjAs_5tWkFh24ZAov-22" value="" style="endArrow=classic;html=1;rounded=0;exitX=1;exitY=0.5;exitDx=0;exitDy=0;" edge="1" parent="1" source="1w-LjAs_5tWkFh24ZAov-4">
          <mxGeometry width="50" height="50" relative="1" as="geometry">
            <mxPoint x="1240" y="270" as="sourcePoint" />
            <mxPoint x="1550" y="200" as="targetPoint" />
          </mxGeometry>
        </mxCell>
        <mxCell id="1w-LjAs_5tWkFh24ZAov-23" value="&lt;font style=&quot;font-size: 16px;&quot;&gt;output Brake_signal&lt;/font&gt;" style="edgeLabel;html=1;align=center;verticalAlign=middle;resizable=0;points=[];" vertex="1" connectable="0" parent="1w-LjAs_5tWkFh24ZAov-22">
          <mxGeometry x="-0.2171" y="-2" relative="1" as="geometry">
            <mxPoint x="18" y="-22" as="offset" />
          </mxGeometry>
        </mxCell>
        <mxCell id="1w-LjAs_5tWkFh24ZAov-24" value="" style="endArrow=classic;html=1;rounded=0;exitX=1;exitY=0.5;exitDx=0;exitDy=0;entryX=0;entryY=0.5;entryDx=0;entryDy=0;" edge="1" parent="1" source="1w-LjAs_5tWkFh24ZAov-5" target="1w-LjAs_5tWkFh24ZAov-4">
          <mxGeometry width="50" height="50" relative="1" as="geometry">
            <mxPoint x="780" y="270" as="sourcePoint" />
            <mxPoint x="830" y="220" as="targetPoint" />
          </mxGeometry>
        </mxCell>
        <mxCell id="1w-LjAs_5tWkFh24ZAov-25" value="" style="endArrow=classic;html=1;rounded=0;exitX=0.53;exitY=1.027;exitDx=0;exitDy=0;exitPerimeter=0;entryX=0.79;entryY=0.996;entryDx=0;entryDy=0;entryPerimeter=0;" edge="1" parent="1" source="1w-LjAs_5tWkFh24ZAov-4" target="1w-LjAs_5tWkFh24ZAov-5">
          <mxGeometry width="50" height="50" relative="1" as="geometry">
            <mxPoint x="780" y="270" as="sourcePoint" />
            <mxPoint x="680" y="260" as="targetPoint" />
            <Array as="points">
              <mxPoint x="1200" y="440" />
              <mxPoint x="764" y="440" />
            </Array>
          </mxGeometry>
        </mxCell>
        <mxCell id="1w-LjAs_5tWkFh24ZAov-38" value="&lt;font style=&quot;font-size: 16px;&quot;&gt;input ack&lt;/font&gt;" style="edgeLabel;html=1;align=center;verticalAlign=middle;resizable=0;points=[];" vertex="1" connectable="0" parent="1w-LjAs_5tWkFh24ZAov-25">
          <mxGeometry x="0.0128" y="3" relative="1" as="geometry">
            <mxPoint x="1" y="17" as="offset" />
          </mxGeometry>
        </mxCell>
        <mxCell id="1w-LjAs_5tWkFh24ZAov-26" value="&lt;font style=&quot;font-size: 16px;&quot;&gt;OD_Frame[52:0]&lt;/font&gt;" style="edgeLabel;html=1;align=center;verticalAlign=middle;resizable=0;points=[];" vertex="1" connectable="0" parent="1">
          <mxGeometry x="929.9966666666666" y="180" as="geometry" />
        </mxCell>
        <mxCell id="1w-LjAs_5tWkFh24ZAov-28" value="" style="endArrow=classic;html=1;rounded=0;exitX=1;exitY=0.5;exitDx=0;exitDy=0;entryX=0;entryY=0.5;entryDx=0;entryDy=0;" edge="1" parent="1" source="1w-LjAs_5tWkFh24ZAov-1" target="1w-LjAs_5tWkFh24ZAov-5">
          <mxGeometry width="50" height="50" relative="1" as="geometry">
            <mxPoint x="370" y="100" as="sourcePoint" />
            <mxPoint x="420" y="50" as="targetPoint" />
          </mxGeometry>
        </mxCell>
        <mxCell id="1w-LjAs_5tWkFh24ZAov-29" value="&lt;font style=&quot;font-size: 16px;&quot;&gt;input RTR&lt;/font&gt;" style="edgeLabel;html=1;align=center;verticalAlign=middle;resizable=0;points=[];" vertex="1" connectable="0" parent="1w-LjAs_5tWkFh24ZAov-28">
          <mxGeometry x="-0.1735" y="3" relative="1" as="geometry">
            <mxPoint x="31" y="-17" as="offset" />
          </mxGeometry>
        </mxCell>
        <mxCell id="1w-LjAs_5tWkFh24ZAov-30" value="" style="endArrow=classic;html=1;rounded=0;exitX=1;exitY=0.75;exitDx=0;exitDy=0;entryX=0;entryY=0.75;entryDx=0;entryDy=0;" edge="1" parent="1" source="1w-LjAs_5tWkFh24ZAov-1" target="1w-LjAs_5tWkFh24ZAov-5">
          <mxGeometry width="50" height="50" relative="1" as="geometry">
            <mxPoint x="370" y="100" as="sourcePoint" />
            <mxPoint x="420" y="50" as="targetPoint" />
          </mxGeometry>
        </mxCell>
        <mxCell id="1w-LjAs_5tWkFh24ZAov-31" value="&lt;font style=&quot;font-size: 16px;&quot;&gt;input IDE&lt;/font&gt;" style="edgeLabel;html=1;align=center;verticalAlign=middle;resizable=0;points=[];" vertex="1" connectable="0" parent="1w-LjAs_5tWkFh24ZAov-30">
          <mxGeometry x="0.1395" y="3" relative="1" as="geometry">
            <mxPoint x="-7" y="-12" as="offset" />
          </mxGeometry>
        </mxCell>
        <mxCell id="1w-LjAs_5tWkFh24ZAov-32" value="" style="endArrow=classic;html=1;rounded=0;exitX=0.874;exitY=-0.018;exitDx=0;exitDy=0;exitPerimeter=0;entryX=0.25;entryY=0;entryDx=0;entryDy=0;" edge="1" parent="1" source="1w-LjAs_5tWkFh24ZAov-1" target="1w-LjAs_5tWkFh24ZAov-5">
          <mxGeometry width="50" height="50" relative="1" as="geometry">
            <mxPoint x="370" y="260" as="sourcePoint" />
            <mxPoint x="420" y="210" as="targetPoint" />
            <Array as="points">
              <mxPoint x="240" y="40" />
              <mxPoint x="600" y="40" />
            </Array>
          </mxGeometry>
        </mxCell>
        <mxCell id="1w-LjAs_5tWkFh24ZAov-33" value="&lt;font style=&quot;font-size: 16px;&quot;&gt;input reserved_bit&lt;/font&gt;" style="edgeLabel;html=1;align=center;verticalAlign=middle;resizable=0;points=[];" vertex="1" connectable="0" parent="1w-LjAs_5tWkFh24ZAov-32">
          <mxGeometry x="-0.0466" y="3" relative="1" as="geometry">
            <mxPoint y="-17" as="offset" />
          </mxGeometry>
        </mxCell>
        <mxCell id="1w-LjAs_5tWkFh24ZAov-34" value="" style="endArrow=classic;html=1;rounded=0;exitX=0.867;exitY=1.003;exitDx=0;exitDy=0;exitPerimeter=0;entryX=0.25;entryY=1;entryDx=0;entryDy=0;" edge="1" parent="1" source="1w-LjAs_5tWkFh24ZAov-1" target="1w-LjAs_5tWkFh24ZAov-5">
          <mxGeometry width="50" height="50" relative="1" as="geometry">
            <mxPoint x="370" y="360" as="sourcePoint" />
            <mxPoint x="420" y="310" as="targetPoint" />
            <Array as="points">
              <mxPoint x="240" y="370" />
              <mxPoint x="602" y="370" />
            </Array>
          </mxGeometry>
        </mxCell>
        <mxCell id="1w-LjAs_5tWkFh24ZAov-35" value="&lt;font style=&quot;font-size: 16px;&quot;&gt;input ACK_slot&lt;/font&gt;" style="edgeLabel;html=1;align=center;verticalAlign=middle;resizable=0;points=[];" vertex="1" connectable="0" parent="1w-LjAs_5tWkFh24ZAov-34">
          <mxGeometry x="-0.0653" y="-2" relative="1" as="geometry">
            <mxPoint x="11" y="18" as="offset" />
          </mxGeometry>
        </mxCell>
        <mxCell id="1w-LjAs_5tWkFh24ZAov-36" value="" style="endArrow=classic;html=1;rounded=0;exitX=0.75;exitY=1;exitDx=0;exitDy=0;entryX=0.381;entryY=1.003;entryDx=0;entryDy=0;entryPerimeter=0;" edge="1" parent="1" source="1w-LjAs_5tWkFh24ZAov-1" target="1w-LjAs_5tWkFh24ZAov-5">
          <mxGeometry width="50" height="50" relative="1" as="geometry">
            <mxPoint x="370" y="360" as="sourcePoint" />
            <mxPoint x="420" y="310" as="targetPoint" />
            <Array as="points">
              <mxPoint x="205" y="440" />
              <mxPoint x="640" y="440" />
            </Array>
          </mxGeometry>
        </mxCell>
        <mxCell id="1w-LjAs_5tWkFh24ZAov-37" value="&lt;font style=&quot;font-size: 16px;&quot;&gt;input wire [15:0] data&lt;/font&gt;" style="edgeLabel;html=1;align=center;verticalAlign=middle;resizable=0;points=[];" vertex="1" connectable="0" parent="1w-LjAs_5tWkFh24ZAov-36">
          <mxGeometry x="-0.0212" y="1" relative="1" as="geometry">
            <mxPoint y="21" as="offset" />
          </mxGeometry>
        </mxCell>
        <mxCell id="1w-LjAs_5tWkFh24ZAov-39" value="" style="shape=flexArrow;endArrow=classic;html=1;rounded=0;width=554.5454545454545;endSize=11.709090909090909;strokeColor=#FFFFFF;" edge="1" parent="1">
          <mxGeometry width="50" height="50" relative="1" as="geometry">
            <mxPoint x="-580" y="-490" as="sourcePoint" />
            <mxPoint x="1702.9090465198863" y="-460" as="targetPoint" />
          </mxGeometry>
        </mxCell>
        <mxCell id="1w-LjAs_5tWkFh24ZAov-40" value="" style="shape=flexArrow;endArrow=classic;html=1;rounded=0;strokeColor=#FFFFFF;" edge="1" parent="1">
          <mxGeometry width="50" height="50" relative="1" as="geometry">
            <mxPoint x="-450" y="630" as="sourcePoint" />
            <mxPoint x="1758.727139559659" y="630" as="targetPoint" />
          </mxGeometry>
        </mxCell>
      </root>
    </mxGraphModel>
  </diagram>
</mxfile>
